<svg width="296" height="316" viewBox="0 0 296 316" xmlns="http://www.w3.org/2000/svg">
    <path d="M92.1857 22.5675C123.276 -7.5225 172.724 -7.5225 203.814 22.5675C213.328 31.7675 224.984 38.4775 237.738 42.0875C279.419 53.8875 304.142 96.5874 293.552 138.467C290.312 151.287 290.312 164.707 293.552 177.527C304.142 219.407 279.419 262.107 237.738 273.907C224.984 277.517 213.328 284.227 203.814 293.427C172.724 323.517 123.276 323.517 92.1857 293.427C82.6717 284.227 71.0157 277.517 58.2617 273.907C16.5807 262.107 -8.14232 219.407 2.44768 177.527C5.68768 164.707 5.68768 151.287 2.44768 138.467C-8.14232 96.5874 16.5807 53.8875 58.2617 42.0875C71.0157 38.4775 82.6717 31.7675 92.1857 22.5675Z"/>
</svg>
