<svg width="320" height="320" viewBox="0 0 320 320" xmlns="http://www.w3.org/2000/svg">
    <path d="M125.261 13.3825C126.991 11.9525 127.851 11.2425 128.641 10.6425C147.191 -3.5475 172.811 -3.5475 191.361 10.6425C192.151 11.2425 193.011 11.9525 194.741 13.3825C195.511 14.0125 195.891 14.3325 196.271 14.6425C205.001 21.5825 215.711 25.5227 226.821 25.8727C227.301 25.8827 227.801 25.8925 228.791 25.9025C231.021 25.9325 232.141 25.9426 233.121 25.9926C256.361 27.1826 275.981 43.8226 281.171 66.7326C281.391 67.7026 281.601 68.8126 282.021 71.0226C282.201 72.0126 282.291 72.5026 282.391 72.9826C284.661 83.9826 290.361 93.9425 298.641 101.423C299.011 101.753 299.381 102.083 300.141 102.733C301.831 104.203 302.671 104.943 303.391 105.623C320.441 121.613 324.891 147.113 314.291 168.033C313.841 168.923 313.291 169.903 312.201 171.863C311.711 172.743 311.471 173.183 311.241 173.613C305.991 183.503 304.011 194.843 305.601 205.953C305.671 206.443 305.751 206.933 305.911 207.923C306.271 210.153 306.451 211.263 306.571 212.253C309.451 235.573 296.641 257.992 275.211 267.132C274.301 267.522 273.251 267.923 271.171 268.723C270.241 269.073 269.771 269.253 269.321 269.433C259.001 273.603 250.281 281.003 244.421 290.543C244.171 290.963 243.921 291.393 243.411 292.253C242.271 294.193 241.701 295.163 241.161 296.003C228.531 315.733 204.461 324.593 182.221 317.673C181.281 317.383 180.221 317.013 178.121 316.263C177.181 315.933 176.711 315.763 176.251 315.613C165.701 312.103 154.301 312.103 143.751 315.613C143.291 315.763 142.821 315.933 141.881 316.263C139.781 317.013 138.721 317.383 137.781 317.673C115.541 324.593 91.4712 315.733 78.8412 296.003C78.3012 295.163 77.7312 294.193 76.5912 292.253C76.0812 291.393 75.8312 290.963 75.5812 290.543C69.7212 281.003 61.0013 273.603 50.6813 269.433C50.2313 269.253 49.7612 269.073 48.8312 268.723C46.7512 267.923 45.7013 267.522 44.7913 267.132C23.3613 257.992 10.5513 235.573 13.4313 212.253C13.5513 211.263 13.7312 210.153 14.0912 207.923C14.2512 206.933 14.3313 206.443 14.4013 205.953C15.9913 194.843 14.0113 183.503 8.76126 173.613C8.53126 173.183 8.2913 172.743 7.8013 171.863C6.7113 169.903 6.16121 168.923 5.71121 168.033C-4.88879 147.113 -0.438763 121.613 16.6112 105.623C17.3312 104.943 18.1712 104.203 19.8612 102.733C20.6212 102.083 20.9912 101.753 21.3612 101.423C29.6412 93.9425 35.3412 83.9826 37.6112 72.9826C37.7112 72.5026 37.8012 72.0126 37.9812 71.0226C38.4012 68.8126 38.6112 67.7026 38.8312 66.7326C44.0212 43.8226 63.6413 27.1826 86.8813 25.9926C87.8613 25.9426 88.9812 25.9325 91.2112 25.9025C92.2012 25.8925 92.7013 25.8827 93.1813 25.8727C104.291 25.5227 115.001 21.5825 123.731 14.6425C124.111 14.3325 124.491 14.0125 125.261 13.3825Z" />
</svg>
