<svg width="316" height="278" viewBox="0 0 316 278" xmlns="http://www.w3.org/2000/svg">
    <path d="M271.57 122.2C257.552 100.62 243.535 79.0103 229.517 57.4303C220.423 43.4203 211.167 29.2204 198.872 18.0904C186.576 6.94042 170.648 -0.939579 154.316 0.0904215C139.976 1.01042 126.684 8.72037 116.191 18.7904C105.698 28.8604 97.5464 41.2604 89.5284 53.5404C67.8424 86.7204 46.1303 119.9 24.4443 153.1C14.1393 168.86 3.56535 185.31 0.713353 204.09C-2.73065 226.78 6.55235 249.89 23.0183 264.98C40.2373 280.76 68.1384 279.48 89.0984 275.16C112.075 270.41 134.541 261.48 157.975 261.51C178.047 261.51 197.446 268.11 216.979 272.91C236.485 277.68 257.445 280.62 276.279 273.52C299.659 264.73 316.448 239.73 315.991 214.07C315.56 190.66 302.457 169.75 289.839 150.27C283.758 140.92 277.678 131.55 271.597 122.2H271.57Z" />
</svg>
