<svg width="320" height="320" viewBox="0 0 320 320" xmlns="http://www.w3.org/2000/svg">
    <path d="M156.818 10.1623C157.571 4.14232 157.948 1.1325 158.52 0.5925C159.353 -0.1975 160.647 -0.1975 161.48 0.5925C162.052 1.1325 162.429 4.14232 163.182 10.1623L172.76 86.7424C173.064 89.1724 173.216 90.3823 173.652 90.8923C174.285 91.6123 175.32 91.8423 176.193 91.4323C176.794 91.1523 177.425 90.1024 178.686 88.0024L218.415 21.9624C221.539 16.7724 223.101 14.1723 223.842 13.9123C224.92 13.5423 226.102 14.0723 226.546 15.1323C226.851 15.8523 225.977 18.7625 224.229 24.5725L201.999 98.4424C201.293 100.792 200.941 101.963 201.136 102.592C201.42 103.522 202.276 104.142 203.238 104.132C203.901 104.122 204.901 103.422 206.901 102.022L269.911 57.9424C274.867 54.4724 277.344 52.7425 278.125 52.8025C279.261 52.9025 280.127 53.8724 280.105 55.0124C280.091 55.8024 278.117 58.1024 274.17 62.6924L223.976 121.092C222.383 122.942 221.587 123.872 221.508 124.532C221.393 125.492 221.922 126.412 222.807 126.792C223.416 127.062 224.613 126.823 227.006 126.363L302.403 111.863C308.332 110.723 311.297 110.152 311.983 110.532C312.981 111.082 313.381 112.323 312.898 113.363C312.566 114.073 309.834 115.362 304.37 117.942L234.892 150.772C232.686 151.812 231.584 152.332 231.244 152.902C230.751 153.732 230.862 154.792 231.516 155.502C231.966 155.992 233.152 156.272 235.525 156.822L310.272 174.412C316.15 175.792 319.09 176.483 319.562 177.113C320.249 178.023 320.114 179.322 319.253 180.072C318.66 180.582 315.643 180.652 309.607 180.772L232.857 182.342C230.421 182.393 229.203 182.422 228.662 182.802C227.875 183.362 227.548 184.372 227.859 185.292C228.073 185.922 229.043 186.662 230.985 188.142L292.158 234.762C296.968 238.432 299.374 240.272 299.551 241.032C299.809 242.152 299.162 243.283 298.071 243.613C297.322 243.843 294.54 242.662 288.975 240.312L218.226 210.363C215.98 209.413 214.857 208.932 214.207 209.062C213.263 209.252 212.555 210.042 212.468 211.002C212.409 211.662 212.996 212.742 214.171 214.882L251.192 282.502C254.103 287.812 255.559 290.472 255.411 291.252C255.194 292.372 254.148 293.142 253.016 293.002C252.238 292.902 250.173 290.692 246.043 286.262L193.526 229.962C191.859 228.182 191.025 227.282 190.38 227.142C189.441 226.922 188.475 227.352 188.006 228.202C187.683 228.782 187.786 230.002 187.991 232.442L194.458 309.353C194.967 315.402 195.221 318.422 194.773 319.072C194.12 320.012 192.854 320.282 191.878 319.692C191.206 319.282 190.215 316.412 188.233 310.682L163.029 237.782C162.229 235.462 161.829 234.312 161.299 233.912C160.529 233.332 159.471 233.332 158.701 233.912C158.171 234.312 157.771 235.462 156.971 237.782L131.767 310.682C129.785 316.412 128.794 319.282 128.122 319.692C127.146 320.282 125.88 320.012 125.227 319.072C124.779 318.422 125.033 315.402 125.542 309.353L132.009 232.442C132.214 230.002 132.317 228.782 131.994 228.202C131.525 227.352 130.559 226.922 129.621 227.142C128.975 227.282 128.141 228.182 126.474 229.962L73.9568 286.262C69.8267 290.692 67.7616 292.902 66.984 293.002C65.8524 293.142 64.8055 292.372 64.5894 291.252C64.4409 290.472 65.8966 287.812 68.808 282.502L105.829 214.882C107.004 212.742 107.591 211.662 107.532 211.002C107.445 210.042 106.737 209.252 105.793 209.062C105.143 208.932 104.02 209.413 101.774 210.363L31.0245 240.312C25.4605 242.662 22.6785 243.843 21.9288 243.613C20.838 243.283 20.191 242.152 20.4489 241.032C20.6262 240.272 23.0316 238.432 27.8424 234.762L89.0148 188.142C90.957 186.662 91.927 185.922 92.141 185.292C92.452 184.372 92.125 183.362 91.338 182.802C90.797 182.422 89.5787 182.393 87.1425 182.342L10.3933 180.772C4.35749 180.652 1.3395 180.582 0.747495 180.072C-0.114065 179.322 -0.249315 178.023 0.438095 177.113C0.910495 176.483 3.84969 175.792 9.72809 174.412L84.475 156.822C86.8477 156.272 88.034 155.992 88.4844 155.502C89.1385 154.792 89.2491 153.732 88.756 152.902C88.4164 152.332 87.3137 151.812 85.1083 150.772L15.6304 117.942C10.1664 115.362 7.4344 114.073 7.1023 113.363C6.6191 112.323 7.01889 111.082 8.01699 110.532C8.70279 110.152 11.6676 110.723 17.5971 111.863L92.994 126.363C95.387 126.823 96.584 127.062 97.193 126.792C98.078 126.412 98.607 125.492 98.492 124.532C98.414 123.872 97.617 122.942 96.024 121.092L45.8303 62.6924C41.8829 58.1024 39.9092 55.8024 39.8946 55.0124C39.8732 53.8724 40.739 52.9025 41.8751 52.8025C42.6558 52.7425 45.1335 54.4724 50.0889 57.9424L113.099 102.022C115.099 103.422 116.099 104.122 116.762 104.132C117.724 104.142 118.58 103.522 118.864 102.592C119.059 101.963 118.707 100.792 118.001 98.4424L95.771 24.5725C94.023 18.7625 93.149 15.8523 93.454 15.1323C93.898 14.0723 95.08 13.5423 96.158 13.9123C96.899 14.1723 98.461 16.7724 101.585 21.9624L141.314 88.0024C142.575 90.1024 143.206 91.1523 143.807 91.4323C144.68 91.8423 145.715 91.6123 146.348 90.8923C146.784 90.3823 146.936 89.1724 147.24 86.7424L156.818 10.1623Z" />
</svg>
