<svg width="320" height="254" viewBox="0 0 320 254" xmlns="http://www.w3.org/2000/svg">
    <path d="M306.405 84.081C313.114 97.591 316.468 104.346 318.162 111.403C320.613 121.606 320.613 132.394 318.162 142.597C316.468 149.654 313.114 156.409 306.405 169.919L285.967 211.079C279.258 224.589 275.904 231.344 271.495 236.58C265.12 244.148 257.084 249.543 248.259 252.177C242.155 254 235.446 254 222.028 254H97.9722C84.5542 254 77.8453 254 71.7413 252.178C62.9163 249.543 54.8802 244.149 48.5052 236.58C44.0962 231.345 40.7423 224.589 34.0333 211.079L13.5952 169.919C6.88624 156.409 3.53225 149.654 1.83825 142.597C-0.61275 132.394 -0.61275 121.606 1.83825 111.403C3.53225 104.346 6.88624 97.591 13.5952 84.081L34.0333 42.921C40.7423 29.411 44.0962 22.655 48.5052 17.42C54.8802 9.85098 62.9163 4.45699 71.7413 1.82199C77.8453 -9.05991e-06 84.5542 0 97.9722 0H222.028C235.446 0 242.155 -9.05991e-06 248.259 1.82199C257.084 4.45699 265.12 9.85098 271.495 17.42C275.904 22.655 279.258 29.41 285.967 42.921L306.405 84.081Z" />
</svg>
