<svg width="302" height="312" viewBox="0 0 302 312" xmlns="http://www.w3.org/2000/svg">
    <path d="M92.481 26.6316C110.641 13.4359 119.731 6.838 129.411 3.55802C143.411 -1.18601 158.591 -1.18601 172.591 3.55802C182.271 6.838 191.361 13.4359 209.521 26.6317L250.371 56.3046C261.161 64.1409 266.561 68.059 270.951 72.7627C277.311 79.5606 282.181 87.6027 285.271 96.381C287.411 102.454 288.381 109.048 290.341 122.236L297.901 173.237C301.331 196.373 303.051 207.941 301.321 218.367C298.811 233.448 291.241 247.227 279.861 257.431C271.991 264.486 261.301 269.245 239.931 278.763L191.521 300.326C178.621 306.07 172.171 308.941 165.551 310.409C155.961 312.53 146.041 312.53 136.451 310.409C129.831 308.941 123.381 306.07 110.481 300.326L62.0709 278.763C40.701 269.245 30.011 264.486 22.141 257.431C10.761 247.227 3.19106 233.448 0.681057 218.367C-1.04894 207.941 0.670979 196.373 4.10098 173.237L11.661 122.236C13.621 109.048 14.591 102.454 16.731 96.381C19.821 87.6027 24.6911 79.5606 31.0511 72.7627C35.4411 68.059 40.841 64.1409 51.631 56.3046L92.481 26.6316Z" />
</svg>
