<svg width="320" height="320" viewBox="0 0 320 320" xmlns="http://www.w3.org/2000/svg">
    <path d="M109.633 24.3675C125.243 12.2875 133.043 6.2475 141.383 3.2475C153.443 -1.0825 166.563 -1.0825 178.623 3.2475C186.963 6.2475 194.763 12.2875 210.373 24.3675L244.513 50.7976L278.633 75.5576C294.823 87.3076 302.923 93.1874 308.333 100.567C316.153 111.257 320.273 124.387 319.993 137.817C319.793 147.107 316.583 156.817 310.143 176.227L296.743 216.658L284.383 258.077C278.573 277.517 275.673 287.238 270.603 294.798C263.263 305.738 252.593 313.777 240.323 317.628C231.843 320.298 222.063 320.137 202.503 319.827L160.003 319.158L117.503 319.827C97.9434 320.137 88.1634 320.298 79.6834 317.628C67.4134 313.777 56.7434 305.738 49.4034 294.798C44.3334 287.238 41.4334 277.517 35.6234 258.077L23.2634 216.658L9.86336 176.227C3.42336 156.817 0.213386 147.107 0.0133862 137.817C-0.266614 124.387 3.85342 111.257 11.6734 100.567C17.0834 93.1874 25.1834 87.3076 41.3734 75.5576L75.4934 50.7976L109.633 24.3675Z" />
</svg>
