<svg width="320" height="320" viewBox="0 0 320 320" xmlns="http://www.w3.org/2000/svg">
    <path d="M249.402 249.754C261.482 237.666 265.572 220.608 261.662 205.157C277.122 209.086 294.203 205.001 306.303 192.902C324.573 174.636 324.573 145.02 306.303 126.754C294.273 114.727 277.323 110.619 261.943 114.43C265.372 99.2862 261.192 82.7662 249.402 70.9752C237.282 58.8602 220.173 54.7803 204.702 58.7363C208.803 43.1713 204.753 25.9033 192.543 13.7003C174.283 -4.56675 144.663 -4.56675 126.403 13.7003C114.273 25.8302 110.193 42.9652 114.173 58.4582C99.0026 54.9862 82.4325 59.1582 70.6225 70.9752C58.8325 82.7672 54.6525 99.2893 58.0825 114.434C42.6925 110.616 25.7325 114.723 13.7025 126.754C-4.5675 145.02 -4.5675 174.636 13.7025 192.902C25.8025 205.005 42.8925 209.089 58.3525 205.153C54.4425 220.605 58.5325 237.665 70.6225 249.754C82.3825 261.521 98.8625 265.708 113.983 262.314C110.333 277.602 114.473 294.371 126.403 306.3C144.663 324.567 174.283 324.567 192.543 306.3C204.543 294.301 208.663 277.403 204.893 262.043C220.323 265.914 237.332 261.817 249.402 249.754Z" />
</svg>
