<svg width="320" height="300" viewBox="0 0 320 300" xmlns="http://www.w3.org/2000/svg">
    <path d="M15.7152 80.54C18.2892 55.96 19.5763 43.67 24.3033 33.978C31.1423 19.945 43.0772 9.11002 57.6282 3.72302C67.6832 2.24113e-05 79.9333 0 104.432 0H228.137C257.764 0 272.578 3.8147e-06 283.887 4.854C300.261 11.882 312.72 25.849 317.927 43.02C321.523 54.87 319.967 69.73 316.854 99.46L304.285 219.46C301.711 244.04 300.424 256.33 295.697 266.02C288.858 280.05 276.923 290.89 262.372 296.28C252.317 300 240.067 300 215.568 300H91.8632C62.2362 300 47.4222 300 36.1132 295.15C19.7392 288.12 7.28025 274.15 2.07325 256.98C-1.52375 245.13 0.033246 230.27 3.14625 200.54L15.7152 80.54Z" />
</svg>
