<svg width="320" height="320" viewBox="0 0 320 320" xmlns="http://www.w3.org/2000/svg">
    <path d="M145.149 7.90425C151.979 -2.63475 168.019 -2.63475 174.849 7.90425L191.239 33.1652C195.729 40.0932 204.799 42.9103 212.689 39.8303L241.469 28.6033C253.479 23.9203 266.449 32.9322 265.509 45.3002L263.239 74.9503C262.609 83.0803 268.209 90.4503 276.489 92.4003L306.679 99.4902C319.269 102.45 324.229 117.03 315.859 126.51L295.799 149.21C290.299 155.44 290.299 164.56 295.799 170.79L315.859 193.49C324.229 202.97 319.269 217.55 306.679 220.51L276.489 227.6C268.209 229.55 262.609 236.92 263.239 245.05L265.509 274.7C266.449 287.07 253.479 296.08 241.469 291.4L212.689 280.17C204.799 277.09 195.729 279.91 191.239 286.84L174.849 312.1C168.019 322.63 151.979 322.63 145.149 312.1L128.759 286.84C124.269 279.91 115.199 277.09 107.309 280.17L78.5287 291.4C66.5187 296.08 53.5487 287.07 54.4887 274.7L56.7587 245.05C57.3887 236.92 51.7887 229.55 43.5087 227.6L13.3186 220.51C0.728621 217.55 -4.23131 202.97 4.13869 193.49L24.1986 170.79C29.6986 164.56 29.6986 155.44 24.1986 149.21L4.13869 126.51C-4.23131 117.03 0.728621 102.45 13.3186 99.4902L43.5087 92.4003C51.7887 90.4503 57.3887 83.0803 56.7587 74.9503L54.4887 45.3002C53.5487 32.9322 66.5187 23.9203 78.5287 28.6033L107.309 39.8303C115.199 42.9103 124.269 40.0932 128.759 33.1652L145.149 7.90425Z" />
</svg>
