<svg width="316" height="286" viewBox="0 0 316 286" xmlns="http://www.w3.org/2000/svg">
    <path d="M104.461 51.1999C119.597 24.8199 127.165 11.63 136.342 6.06C149.648 -2.02 166.352 -2.02 179.658 6.06C188.835 11.63 196.403 24.8199 211.539 51.1999L293.309 193.72C308.3 219.85 315.795 232.91 315.993 243.58C316.28 259.06 307.949 273.42 294.364 280.86C284.994 286 269.919 286 239.77 286H76.2302C46.0812 286 31.0062 286 21.6362 280.86C8.05018 273.42 -0.279815 259.06 0.00718477 243.58C0.205185 232.91 7.70021 219.85 22.6912 193.72L104.461 51.1999Z" />
</svg>
